<?xml version="1.0" standalone="no"?>
<!DOCTYPE svg PUBLIC "-//W3C//DTD SVG 20010904//EN"
 "http://www.w3.org/TR/2001/REC-SVG-20010904/DTD/svg10.dtd">
<svg version="1.0" xmlns="http://www.w3.org/2000/svg"
 width="2465.000000pt" height="587.000000pt" viewBox="0 0 2465.000000 587.000000"
 preserveAspectRatio="xMidYMid meet">

<g transform="translate(0.000000,587.000000) scale(0.100000,-0.100000)"
fill="#000000" stroke="none">
<path d="M23635 5220 c-11 -5 -32 -9 -46 -9 -74 -2 -228 -73 -324 -150 -60
-48 -140 -149 -175 -221 -12 -25 -26 -53 -31 -62 -24 -46 -48 -176 -48 -263 0
-236 121 -463 313 -589 144 -95 288 -129 476 -114 96 8 232 52 285 92 19 14
37 26 41 26 17 0 116 95 159 153 94 123 144 273 145 424 0 87 -18 199 -41 253
-75 173 -167 283 -306 364 -43 25 -81 46 -86 46 -5 0 -23 6 -40 14 -74 34
-275 56 -322 36z m280 -104 c203 -83 330 -205 395 -381 116 -309 -31 -660
-333 -794 -89 -40 -144 -51 -254 -51 -167 0 -269 35 -393 135 -259 208 -315
561 -131 838 89 136 244 240 401 271 55 11 275 -2 315 -18z"/>
<path d="M23262 4718 l3 -43 57 -3 58 -3 2 -197 3 -197 43 -3 42 -3 0 200 0
200 68 3 67 3 3 43 3 42 -176 0 -176 0 3 -42z"/>
<path d="M23682 4518 l3 -243 63 -3 62 -3 0 141 c0 87 4 140 10 140 6 0 10 -8
10 -18 0 -10 4 -22 9 -27 5 -6 19 -41 32 -80 13 -38 29 -81 36 -95 7 -14 13
-30 13 -37 0 -25 21 -23 30 4 6 15 14 37 19 48 5 11 20 47 32 80 13 33 27 64
31 70 4 5 8 17 8 26 0 9 7 22 15 29 13 11 15 -1 15 -96 0 -60 3 -126 6 -147
l7 -38 51 3 51 3 3 243 2 242 -65 0 -65 0 -57 -115 c-32 -63 -62 -115 -68
-115 -6 0 -36 52 -68 115 l-57 115 -65 0 -65 0 2 -242z"/>
<path d="M21065 4169 c-22 -4 -69 -12 -105 -18 -94 -14 -174 -32 -185 -41 -5
-4 -26 -11 -45 -15 -19 -4 -41 -11 -50 -15 -8 -5 -49 -25 -90 -45 -122 -59
-166 -88 -246 -160 l-44 -40 61 -85 c222 -310 262 -360 280 -347 105 76 194
123 294 154 45 13 92 18 190 18 127 0 132 -1 197 -33 74 -36 136 -98 170 -171
31 -67 31 -199 -1 -259 -26 -51 -98 -132 -116 -132 -8 0 -15 -4 -17 -8 -5 -12
-103 -52 -127 -52 -11 0 -22 -4 -25 -9 -16 -25 -288 -22 -408 5 l-28 6 0 -287
0 -287 38 5 c306 44 462 30 575 -51 58 -41 88 -87 111 -164 20 -71 20 -103 -1
-167 -52 -161 -229 -231 -553 -217 -257 11 -500 70 -607 147 l-43 30 2 -328 3
-328 70 -34 c83 -41 250 -101 280 -101 11 0 25 -4 30 -9 27 -24 329 -54 475
-47 183 10 392 53 535 111 72 29 79 32 155 70 204 102 363 249 458 425 16 31
33 71 37 90 4 19 12 41 17 47 6 7 12 68 15 135 9 216 -43 354 -187 499 -114
115 -221 170 -420 214 -41 10 -88 20 -103 24 -16 3 -28 10 -28 15 0 5 37 21
83 36 264 86 416 232 489 470 21 67 18 258 -4 345 -29 108 -99 242 -169 319
-146 162 -315 240 -616 285 -82 13 -287 13 -347 0z"/>
<path d="M9790 4160 c-181 -20 -337 -70 -481 -155 -76 -46 -182 -152 -243
-245 -104 -158 -149 -311 -147 -500 1 -192 43 -316 155 -466 50 -67 211 -212
260 -234 6 -3 31 -18 56 -34 25 -16 140 -77 255 -136 116 -58 238 -123 273
-144 85 -51 182 -144 212 -202 28 -57 31 -131 7 -168 -60 -90 -272 -128 -578
-101 -96 8 -199 20 -229 26 -202 39 -323 78 -404 129 l-46 30 0 -318 0 -317
33 -18 c154 -84 313 -143 472 -174 120 -24 442 -23 560 1 368 75 633 222 794
439 127 172 192 392 178 603 -8 124 -21 175 -68 272 -71 148 -210 261 -434
356 -49 20 -103 44 -120 51 -16 7 -52 22 -80 33 -27 11 -75 31 -105 45 -30 14
-85 38 -122 55 -93 42 -202 115 -258 172 -50 51 -80 118 -80 174 1 75 63 152
160 197 57 27 190 36 286 20 69 -12 250 -67 269 -81 6 -4 21 -11 35 -15 14 -4
72 -30 129 -56 56 -27 107 -46 112 -43 5 3 28 44 50 92 23 48 80 166 126 261
46 96 86 185 89 196 5 19 -5 27 -78 60 -197 90 -424 159 -603 184 -110 16
-338 21 -435 11z"/>
<path d="M350 2640 l0 -1460 375 0 375 0 2 472 3 473 110 67 c61 37 113 68
117 68 8 0 41 -58 123 -215 32 -60 61 -114 65 -120 4 -5 33 -59 65 -120 69
-132 128 -242 165 -310 15 -27 51 -95 80 -150 29 -55 61 -113 70 -130 l17 -30
457 -3 456 -2 -23 37 c-13 21 -45 76 -71 123 -27 47 -58 101 -70 120 -41 63
-275 460 -322 545 -9 17 -72 123 -140 237 -68 113 -124 209 -124 212 0 4 -5
12 -10 19 -6 7 -43 68 -83 137 -40 69 -81 139 -91 156 l-19 31 108 143 c60 79
116 153 126 164 10 12 28 36 41 54 13 18 138 183 278 367 140 184 266 350 280
368 14 19 53 71 88 115 34 44 62 83 62 86 0 3 -197 6 -437 6 l-438 0 -429
-645 c-236 -355 -433 -645 -437 -645 -5 0 -9 290 -9 645 l0 645 -380 0 -380 0
0 -1460z"/>
<path d="M3846 3988 c-20 -62 -40 -120 -45 -128 -5 -9 -12 -31 -16 -50 -4 -19
-11 -39 -15 -45 -4 -5 -12 -26 -18 -45 -5 -19 -125 -377 -266 -795 -141 -418
-302 -895 -357 -1060 -55 -165 -104 -307 -108 -315 -5 -9 -12 -31 -16 -50 -4
-19 -11 -41 -16 -50 -10 -19 -89 -250 -89 -262 0 -4 186 -8 414 -8 l414 0 10
43 c10 41 29 112 58 212 20 67 42 149 58 211 7 27 16 56 20 62 5 9 122 12 462
12 250 0 454 -2 454 -4 0 -2 27 -82 61 -177 33 -96 73 -210 87 -254 15 -44 31
-86 35 -92 6 -10 106 -13 443 -13 239 0 434 4 434 9 0 9 -17 66 -30 96 -12 31
-63 175 -120 340 -28 83 -55 159 -60 170 -8 19 -33 89 -131 375 -22 63 -42
122 -46 130 -11 28 -90 254 -147 420 -31 91 -61 174 -65 185 -12 27 -70 190
-126 355 -26 74 -50 144 -55 155 -8 19 -34 94 -131 375 -22 63 -43 122 -46
130 -4 8 -18 51 -33 95 l-27 80 -475 3 -475 2 -37 -112z m503 -525 c5 -21 19
-76 31 -123 12 -47 28 -112 36 -145 19 -76 25 -101 130 -509 71 -278 84 -340
73 -347 -17 -11 -569 -12 -586 -1 -9 5 -8 22 2 67 14 61 75 295 115 440 12 44
28 105 35 135 18 71 103 396 114 435 5 17 12 42 15 58 9 38 24 34 35 -10z"/>
<path d="M6210 2640 l0 -1460 759 0 c798 0 806 0 936 45 254 87 454 304 527
573 32 116 32 349 0 449 -41 132 -97 227 -186 317 -111 113 -189 162 -336 212
-36 12 -48 19 -35 22 231 40 387 148 470 327 39 83 55 153 55 238 0 74 -17
188 -31 202 -5 5 -9 16 -9 25 0 18 -49 117 -81 162 -86 123 -183 207 -310 267
-165 79 -112 75 -981 78 l-778 4 0 -1461z m1235 853 c61 -32 113 -92 135 -156
24 -67 25 -98 6 -161 -48 -159 -158 -213 -453 -223 l-163 -6 0 288 0 287 218
-4 c197 -4 221 -6 257 -25z m23 -1125 c103 -51 155 -135 155 -253 0 -122 -60
-210 -183 -269 -65 -30 -66 -30 -264 -34 -158 -3 -200 -1 -207 10 -10 15 -12
561 -2 571 3 4 103 7 221 7 l215 0 65 -32z"/>
<path d="M11375 4088 c-3 -7 -4 -663 -3 -1458 l3 -1445 393 -3 392 -2 0 1460
0 1460 -390 0 c-303 0 -392 -3 -395 -12z"/>
<path d="M12900 2640 l0 -1460 330 0 330 0 0 1003 c1 653 4 996 10 985 9 -14
37 -111 106 -358 8 -30 21 -77 29 -105 17 -60 99 -357 121 -435 8 -30 22 -77
30 -105 8 -27 41 -149 74 -270 34 -121 67 -242 75 -270 8 -27 33 -115 55 -195
23 -80 48 -169 56 -198 l15 -52 380 2 381 3 13 40 c7 22 36 121 65 220 57 199
67 232 85 290 7 22 20 69 30 105 9 36 24 85 31 110 8 25 26 84 39 132 14 49
36 125 49 170 13 46 26 92 29 103 3 11 16 58 30 105 13 47 27 94 30 105 6 22
120 411 143 490 9 28 18 62 21 77 3 15 11 33 19 39 12 10 14 -136 14 -990 l0
-1001 375 0 375 0 0 1460 0 1460 -554 0 -554 0 -11 -42 c-15 -55 -33 -121 -65
-233 -14 -49 -33 -115 -42 -145 -9 -30 -20 -66 -25 -80 -4 -14 -13 -43 -18
-65 -5 -22 -25 -92 -44 -155 -19 -63 -49 -167 -67 -230 -18 -63 -45 -158 -60
-210 -15 -52 -45 -153 -65 -225 -51 -179 -93 -324 -104 -360 -5 -16 -19 -64
-31 -105 -12 -41 -26 -79 -30 -83 -8 -9 -25 31 -91 218 -22 61 -43 119 -48
130 -23 56 -281 752 -281 760 0 4 -6 21 -14 38 -7 18 -26 66 -41 107 -16 41
-78 210 -140 375 l-111 300 -472 3 -472 2 0 -1460z"/>
<path d="M19784 3724 c-27 -15 -453 -229 -946 -477 l-898 -451 0 -173 0 -174
44 -18 c24 -11 67 -30 97 -44 146 -68 231 -107 234 -107 2 0 41 -17 87 -39 46
-21 106 -49 133 -61 49 -21 85 -38 215 -98 36 -16 88 -40 115 -52 49 -22 86
-38 215 -98 36 -16 88 -40 115 -52 49 -22 86 -38 215 -98 36 -16 88 -40 115
-52 53 -23 77 -34 218 -99 49 -23 93 -41 98 -41 6 0 8 117 7 286 l-3 285 -140
55 c-77 30 -154 62 -172 70 -17 7 -35 14 -41 14 -5 0 -40 13 -78 29 -71 30
-202 83 -264 107 -213 81 -427 168 -437 176 -19 16 -16 22 25 39 20 10 71 33
112 52 41 19 102 47 135 62 33 15 101 46 150 70 146 68 196 91 260 120 67 30
161 74 338 158 l117 56 0 291 c0 159 -4 290 -9 290 -4 0 -30 -12 -57 -26z"/>
</g>
</svg>
