<svg width="96" height="96" xmlns="http://www.w3.org/2000/svg" xmlns:xlink="http://www.w3.org/1999/xlink" xml:space="preserve" overflow="hidden"><defs><clipPath id="clip0"><rect x="953" y="624" width="96" height="96"/></clipPath></defs><g clip-path="url(#clip0)" transform="translate(-953 -624)"><path d="M1001 684C994.4 684 989 678.6 989 672 989 665.4 994.4 660 1001 660 1007.6 660 1013 665.4 1013 672 1013 678.6 1007.6 684 1001 684ZM1028 664.5C1027.4 662.3 1026.5 660.2 1025.4 658.3L1027.9 650.8 1022.2 645.1 1014.7 647.6C1012.7 646.5 1010.6 645.6 1008.4 645L1005 638 997 638 993.5 645C991.3 645.6 989.2 646.5 987.3 647.6L979.8 645.1 974.1 650.8 976.6 658.3C975.5 660.3 974.6 662.4 974 664.6L967 668 967 676 974 679.5C974.6 681.7 975.5 683.8 976.6 685.7L974.1 693.2 979.8 698.9 987.3 696.4C989.3 697.5 991.4 698.4 993.6 699L997.1 706 1005.1 706 1008.6 699C1010.8 698.4 1012.9 697.5 1014.8 696.4L1022.3 698.9 1028 693.2 1025.5 685.7C1026.6 683.7 1027.5 681.6 1028.1 679.4L1035.1 675.9 1035.1 667.9 1028 664.5Z" fill="#FFFFFF"/></g></svg>