<svg width="96" height="96" xmlns="http://www.w3.org/2000/svg" xmlns:xlink="http://www.w3.org/1999/xlink" xml:space="preserve" overflow="hidden"><defs><clipPath id="clip0"><rect x="1129" y="372" width="96" height="96"/></clipPath></defs><g clip-path="url(#clip0)" transform="translate(-1129 -372)"><path d="M1173.98 379.05 1173.98 453.809 1165.08 444.914C1163.92 443.754 1162.04 443.754 1160.88 444.914 1159.72 446.074 1159.72 447.954 1160.88 449.114L1174.88 463.1C1175.99 464.26 1177.82 464.305 1178.98 463.2 1179.02 463.168 1179.05 463.134 1179.08 463.1L1193.07 449.112C1194.23 448.007 1194.28 446.172 1193.17 445.012 1193.14 444.978 1193.11 444.945 1193.07 444.912 1191.97 443.752 1190.13 443.707 1188.97 444.812 1188.94 444.844 1188.9 444.878 1188.87 444.912L1179.98 453.807 1179.98 379.05C1179.98 377.393 1178.63 376.05 1176.98 376.05 1175.32 376.05 1173.98 377.393 1173.98 379.05Z"/></g></svg>