<svg width="96" height="96" xmlns="http://www.w3.org/2000/svg" xmlns:xlink="http://www.w3.org/1999/xlink" xml:space="preserve" overflow="hidden"><g transform="translate(-815 -364)"><path d="M857 371 869 371 869 415 857 415Z" fill="#FFFFFF"/><path d="M884.8 383.9 877.9 393.7C884.6 398.4 889 406.2 889 415 889 429.3 877.3 441 863 441 848.7 441 837 429.3 837 415 837 406.2 841.4 398.4 848.1 393.7L841.2 383.9C831.4 390.7 825 402.1 825 415 825 436 842 453 863 453 884 453 901 436 901 415 901 402.1 894.6 390.7 884.8 383.9Z" fill="#FFFFFF"/></g></svg>