<svg width="96" height="96" xmlns="http://www.w3.org/2000/svg" xmlns:xlink="http://www.w3.org/1999/xlink" xml:space="preserve" overflow="hidden"><defs><clipPath id="clip0"><rect x="670" y="631" width="96" height="96"/></clipPath></defs><g clip-path="url(#clip0)" transform="translate(-670 -631)"><path d="M743.335 660.612C741.698 646.624 729.032 636.612 715.044 638.249 702.228 639.749 692.552 650.586 692.508 663.489L704.508 663.489C704.508 656.036 710.549 649.994 718.002 649.993 725.456 649.993 731.498 656.035 731.498 663.488 731.498 668.135 729.107 672.455 725.17 674.923 717.044 679.895 712.063 688.712 712 698.238L724 698.238C724.076 692.841 726.934 687.866 731.558 685.081 739.882 679.886 744.467 670.359 743.335 660.612Z" fill="#FFFFFF"/><path d="M723.379 707.474 723.379 707.474C720.519 704.609 715.878 704.604 713.013 707.463 713.009 707.467 713.006 707.47 713.002 707.474 712.331 708.147 711.797 708.944 711.43 709.82 711.047 710.725 710.852 711.698 710.857 712.681 710.852 713.66 711.047 714.629 711.432 715.529 712.18 717.288 713.585 718.686 715.348 719.424 716.253 719.807 717.226 720.002 718.208 720 719.187 720.005 720.156 719.809 721.056 719.425 722.807 718.677 724.201 717.283 724.948 715.532 725.333 714.632 725.529 713.663 725.524 712.684 725.528 711.701 725.332 710.728 724.95 709.823 724.583 708.946 724.049 708.148 723.379 707.474Z" fill="#FFFFFF"/></g></svg>