<svg width="96" height="96" xmlns="http://www.w3.org/2000/svg" xmlns:xlink="http://www.w3.org/1999/xlink" xml:space="preserve" overflow="hidden"><defs><clipPath id="clip0"><rect x="1135" y="590" width="96" height="96"/></clipPath></defs><g clip-path="url(#clip0)" transform="translate(-1135 -590)"><path d="M1186.03 678.951 1186.03 604.192 1194.93 613.092C1196.09 614.252 1197.97 614.252 1199.13 613.092 1200.29 611.932 1200.29 610.052 1199.13 608.892L1185.13 594.9C1184.03 593.74 1182.19 593.695 1181.03 594.8 1181 594.833 1180.96 594.866 1180.93 594.9L1166.94 608.89C1165.78 609.995 1165.74 611.83 1166.84 612.99 1166.87 613.024 1166.91 613.057 1166.94 613.09 1168.05 614.25 1169.88 614.295 1171.04 613.19 1171.08 613.157 1171.11 613.124 1171.14 613.09L1180.04 604.195 1180.04 678.951C1180.04 680.608 1181.38 681.951 1183.04 681.951 1184.69 681.951 1186.04 680.608 1186.04 678.951Z"/></g></svg>